<svg width="40" height="42" viewBox="0 0 40 42" fill="none" xmlns="http://www.w3.org/2000/svg">
<path d="M33.125 3.96226V0H6.875V3.96226H0V12.9962C0 17.2755 3.4375 20.7623 7.65625 20.7623H7.8125C9.6875 25.834 14.5312 29.3208 20.1562 29.3208H20.3125V33.7585H19.0625C14.8438 33.7585 11.4062 37.2453 11.4062 41.5245V42.1585H30.625V41.5245C30.625 37.2453 27.1875 33.7585 22.9688 33.7585H20.9375V29.3208C26.0938 29.0038 30.4688 25.517 32.3438 20.7623H32.5C36.7188 20.7623 40.1562 17.2755 40.1562 12.9962V3.96226H33.125ZM1.5625 13.1547V5.54717H6.875V15.8491C6.875 16.9585 7.03125 18.0679 7.34375 19.0189C4.0625 19.0189 1.5625 16.3245 1.5625 13.1547ZM29.375 40.8906H12.5C12.8125 37.5623 15.625 35.0264 18.9062 35.0264H22.9688C26.25 34.8679 29.0625 37.5623 29.375 40.8906ZM31.5625 16.0075C31.5625 22.5057 26.4062 27.7358 20 27.7358C13.5938 27.7358 8.4375 22.5057 8.4375 16.0075V1.58491H31.7187V16.0075H31.5625ZM38.4375 13.1547C38.4375 16.3245 35.9375 19.0189 32.8125 19.1774C33.125 18.0679 33.2812 17.117 33.2812 16.0075V5.54717H38.5938V13.1547H38.4375Z" fill="#010101"/>
</svg>
