<svg width="50" height="42" viewBox="0 0 50 42" fill="none" xmlns="http://www.w3.org/2000/svg">
<path d="M33.9779 42H16.0221C7.18232 42 0 34.72 0 25.76C0 16.8 7.18232 9.52002 16.0221 9.52002H33.9779C42.8177 9.52002 50 16.8 50 25.76C50 34.72 42.8177 42 33.9779 42ZM16.0221 10.92C8.01105 10.92 1.38122 17.5 1.38122 25.76C1.38122 34.02 8.01105 40.6 16.0221 40.6H33.9779C41.9889 40.6 48.6188 33.88 48.6188 25.76C48.6188 17.64 42.1271 10.92 33.9779 10.92H16.0221Z" fill="#010101"/>
<path d="M14.2265 24.22C13.9502 24.22 13.674 24.08 13.5359 23.94L11.6022 21.98C11.1878 21.56 11.1878 21 11.6022 20.58L13.5359 18.62C13.9502 18.2 14.5027 18.2 14.9171 18.62L16.8508 20.58C16.9889 20.72 17.127 21 17.127 21.28C17.127 21.56 16.9889 21.84 16.8508 21.98L14.9171 23.94C14.779 24.08 14.5027 24.22 14.2265 24.22ZM14.2265 18.76C14.0883 18.76 13.9502 18.76 13.9502 18.9L12.0165 20.86C11.8784 21 11.8784 21.28 12.0165 21.56L13.9502 23.52C14.0883 23.66 14.3646 23.66 14.6408 23.52L16.5745 21.56C16.7127 21.42 16.7127 21.42 16.7127 21.28C16.7127 21.14 16.7127 21 16.5745 21L14.6408 19.04C14.5027 18.9 14.3646 18.76 14.2265 18.76Z" fill="#010101"/>
<path d="M18.7845 28.84C18.5083 28.84 18.232 28.7 18.0939 28.56L16.1602 26.6C15.7458 26.18 15.7458 25.62 16.1602 25.2L18.0939 23.24C18.5083 22.82 19.1989 22.82 19.4751 23.24L21.4088 25.2C21.8232 25.62 21.8232 26.18 21.4088 26.6L19.4751 28.56C19.337 28.84 19.0608 28.84 18.7845 28.84ZM18.7845 23.52C18.6464 23.52 18.5083 23.52 18.5083 23.66L16.5746 25.62C16.4364 25.76 16.4364 26.04 16.5746 26.32L18.5083 28.28C18.6464 28.42 18.9226 28.42 19.1989 28.28L21.1326 26.32C21.2707 26.18 21.2707 25.9 21.1326 25.62L19.1989 23.66C19.0608 23.52 18.9226 23.52 18.7845 23.52Z" fill="#010101"/>
<path d="M9.94473 28.56C9.66848 28.56 9.39224 28.42 9.25412 28.28L7.32042 26.32C6.90605 25.9 6.90605 25.34 7.32042 24.92L9.25412 22.96C9.66848 22.54 10.3591 22.54 10.6353 22.96L12.569 24.92C12.9834 25.34 12.9834 25.9 12.569 26.32L10.6353 28.28C10.4972 28.42 10.221 28.56 9.94473 28.56ZM9.94473 23.24C9.8066 23.24 9.66848 23.24 9.66848 23.38L7.73478 25.34C7.59666 25.48 7.59666 25.76 7.73478 26.04L9.66848 27.86C9.8066 28 10.0828 28 10.3591 27.86L12.2928 25.9C12.4309 25.76 12.4309 25.48 12.2928 25.2L10.3591 23.24C10.221 23.24 10.0828 23.24 9.94473 23.24Z" fill="#010101"/>
<path d="M14.5027 33.18C14.2265 33.18 13.9502 33.04 13.8121 32.9L11.8784 30.94C11.464 30.52 11.464 29.96 11.8784 29.54L13.8121 27.58C14.2265 27.16 14.779 27.16 15.1933 27.58L17.127 29.54C17.5414 29.96 17.5414 30.52 17.127 30.94L15.1933 32.9C15.0552 33.18 14.779 33.18 14.5027 33.18ZM14.5027 27.86C14.3646 27.86 14.2265 27.86 14.2265 28L12.2928 29.96C12.1546 30.1 12.1546 30.38 12.2928 30.66L14.2265 32.62C14.3646 32.76 14.6408 32.76 14.9171 32.62L16.8508 30.66C16.9889 30.52 16.9889 30.24 16.8508 29.96L14.779 28C14.779 27.86 14.6408 27.86 14.5027 27.86Z" fill="#010101"/>
<path d="M32.5967 25.62C32.4586 25.62 32.4586 25.62 32.3204 25.48C32.1823 25.34 32.1823 25.06 32.3204 24.92L38.8122 18.34C38.9503 18.2 39.2265 18.2 39.3646 18.34C39.5028 18.48 39.5028 18.76 39.3646 18.9L32.8729 25.48C32.8729 25.48 32.7348 25.62 32.5967 25.62Z" fill="#010101"/>
<path d="M25.2762 8.82L25.6322 9.17115L25.7762 9.02513V8.90161C25.7763 8.90147 25.7764 8.90134 25.7764 8.9012C25.7949 8.86377 25.8204 8.80322 25.8318 8.72499C25.8437 8.64261 25.8372 8.55989 25.814 8.48122C25.8037 8.44664 25.7908 8.41467 25.7762 8.38531V0.28C25.7762 0.049759 25.6675 -0.140315 25.5458 -0.263656C25.4246 -0.386577 25.2341 -0.5 25 -0.5C24.4567 -0.5 24.2238 0.0135842 24.2238 0.42V8.68C24.2238 8.91024 24.3325 9.10032 24.4541 9.22366C24.5754 9.34658 24.7659 9.46 25 9.46C25.2213 9.46 25.3935 9.35588 25.4699 9.30428C25.5164 9.27287 25.5541 9.24221 25.5804 9.21932C25.5939 9.20764 25.605 9.19738 25.6137 9.18923L25.6248 9.17851L25.629 9.17439L25.6307 9.17266L25.6315 9.17188L25.6318 9.17151L25.632 9.17133C25.6321 9.17124 25.6322 9.17115 25.2762 8.82Z" fill="#010101" stroke="black"/>
<path d="M32.5967 28.98C32.4586 28.98 32.4586 28.98 32.3204 28.84C32.1823 28.7 32.1823 28.42 32.3204 28.28L38.8122 21.7C38.9503 21.56 39.2265 21.56 39.3646 21.7C39.5028 21.84 39.5028 22.12 39.3646 22.26L32.8729 28.84C32.8729 28.98 32.7348 28.98 32.5967 28.98Z" fill="#010101"/>
<path d="M32.5967 32.62C32.4586 32.62 32.4586 32.62 32.3204 32.48C32.1823 32.34 32.1823 32.06 32.3204 31.92L38.8122 25.34C38.9503 25.2 39.2265 25.2 39.3646 25.34C39.5028 25.48 39.5028 25.76 39.3646 25.9L32.8729 32.48C32.8729 32.62 32.7348 32.62 32.5967 32.62Z" fill="#010101"/>
</svg>
