<svg width="42" height="41" viewBox="0 0 42 41" fill="none" xmlns="http://www.w3.org/2000/svg">
<path d="M20.3 0.400024L0.299998 25.3C-0.100002 25.8 -2.44379e-06 26.6 0.599998 27L20.7 40.4C21.1 40.7 21.6 40.7 22 40.4L41 26.9C41.5 26.5 41.6 25.8 41.2 25.3L22.1 0.400024C21.6 -0.0999756 20.8 -0.0999756 20.3 0.400024ZM23.7 4.20002L39.7 25C40.1 25.5 40 26.2 39.5 26.6L23.5 37.8C22.8 38.3 21.7 37.8 21.7 36.9V4.90002C21.7 3.80002 23.1 3.40002 23.7 4.20002ZM20.7 4.70002V37C20.7 37.9 19.7 38.4 18.9 37.9L2 26.7C1.4 26.3 1.3 25.6 1.7 25L18.7 4.00002C19.4 3.20002 20.7 3.70002 20.7 4.70002Z" fill="#010101"/>
</svg>
